<svg id="visual" viewBox="0 0 960 540" width="960" height="540" xmlns="http://www.w3.org/2000/svg" xmlns:xlink="http://www.w3.org/1999/xlink" version="1.1"><g stroke-width="19" stroke-linejoin="bevel"><path d="M370 244L323 278L345 295Z" fill="#004169" stroke="#000000"></path><path d="M243 258L252 284L323 278Z" fill="#014371" stroke="#000000"></path><path d="M323 278L269 381L345 295Z" fill="#00426d" stroke="#000000"></path><path d="M294 119L243 258L323 278Z" fill="#10384b" stroke="#000000"></path><path d="M575 180L420 156L370 244Z" fill="#004064" stroke="#000000"></path><path d="M294 119L214 189L243 258Z" fill="#004064" stroke="#000000"></path><path d="M252 284L269 381L323 278Z" fill="#004169" stroke="#000000"></path><path d="M184 351L269 381L252 284Z" fill="#0d3a4f" stroke="#000000"></path><path d="M294 119L323 278L370 244Z" fill="#054475" stroke="#000000"></path><path d="M243 258L184 351L252 284Z" fill="#053c58" stroke="#000000"></path><path d="M420 156L294 119L370 244Z" fill="#003f60" stroke="#000000"></path><path d="M269 381L338 437L345 295Z" fill="#003f60" stroke="#000000"></path><path d="M345 295L481 414L370 244Z" fill="#003f60" stroke="#000000"></path><path d="M294 119L217 147L214 189Z" fill="#053c58" stroke="#000000"></path><path d="M420 156L299 94L294 119Z" fill="#023e5c" stroke="#000000"></path><path d="M294 119L189 107L217 147Z" fill="#014371" stroke="#000000"></path><path d="M124 198L243 258L214 189Z" fill="#023e5c" stroke="#000000"></path><path d="M124 198L184 351L243 258Z" fill="#014371" stroke="#000000"></path><path d="M329 540L352 474L252 539Z" fill="#014371" stroke="#000000"></path><path d="M338 437L438 433L345 295Z" fill="#093b53" stroke="#000000"></path><path d="M438 433L481 414L345 295Z" fill="#10384b" stroke="#000000"></path><path d="M352 474L338 437L252 539Z" fill="#004169" stroke="#000000"></path><path d="M338 437L352 474L438 433Z" fill="#003f60" stroke="#000000"></path><path d="M438 433L470 540L481 414Z" fill="#0d3a4f" stroke="#000000"></path><path d="M299 94L189 107L294 119Z" fill="#023e5c" stroke="#000000"></path><path d="M217 147L124 198L214 189Z" fill="#10384b" stroke="#000000"></path><path d="M189 107L124 198L217 147Z" fill="#003f60" stroke="#000000"></path><path d="M481 414L575 180L370 244Z" fill="#093b53" stroke="#000000"></path><path d="M397 0L333 0L299 94Z" fill="#093b53" stroke="#000000"></path><path d="M575 180L568 148L420 156Z" fill="#014371" stroke="#000000"></path><path d="M397 0L299 94L420 156Z" fill="#004169" stroke="#000000"></path><path d="M299 94L283 0L189 107Z" fill="#004169" stroke="#000000"></path><path d="M480 3L397 0L420 156Z" fill="#004169" stroke="#000000"></path><path d="M481 414L619 215L575 180Z" fill="#093b53" stroke="#000000"></path><path d="M575 180L632 171L568 148Z" fill="#004169" stroke="#000000"></path><path d="M333 0L283 0L299 94Z" fill="#10384b" stroke="#000000"></path><path d="M252 539L338 437L269 381Z" fill="#054475" stroke="#000000"></path><path d="M352 474L407 540L438 433Z" fill="#10384b" stroke="#000000"></path><path d="M329 540L407 540L352 474Z" fill="#10384b" stroke="#000000"></path><path d="M481 414L662 267L619 215Z" fill="#014371" stroke="#000000"></path><path d="M182 544L269 381L184 351Z" fill="#054475" stroke="#000000"></path><path d="M182 544L252 539L269 381Z" fill="#0d3a4f" stroke="#000000"></path><path d="M531 0L480 3L568 148Z" fill="#023e5c" stroke="#000000"></path><path d="M568 148L480 3L420 156Z" fill="#053c58" stroke="#000000"></path><path d="M124 198L63 336L184 351Z" fill="#023e5c" stroke="#000000"></path><path d="M619 215L632 171L575 180Z" fill="#054475" stroke="#000000"></path><path d="M407 540L470 540L438 433Z" fill="#10384b" stroke="#000000"></path><path d="M634 430L662 267L481 414Z" fill="#023e5c" stroke="#000000"></path><path d="M619 215L668 217L632 171Z" fill="#00426d" stroke="#000000"></path><path d="M619 69L531 0L568 148Z" fill="#0d3a4f" stroke="#000000"></path><path d="M480 3L531 0L397 0Z" fill="#0d3a4f" stroke="#000000"></path><path d="M662 267L668 217L619 215Z" fill="#003f60" stroke="#000000"></path><path d="M654 91L619 69L568 148Z" fill="#10384b" stroke="#000000"></path><path d="M160 540L182 544L184 351Z" fill="#014371" stroke="#000000"></path><path d="M252 539L182 544L329 540Z" fill="#023e5c" stroke="#000000"></path><path d="M329 540L182 544L407 540Z" fill="#0d3a4f" stroke="#000000"></path><path d="M407 540L182 544L470 540Z" fill="#053c58" stroke="#000000"></path><path d="M555 540L634 430L481 414Z" fill="#054475" stroke="#000000"></path><path d="M654 91L568 148L632 171Z" fill="#003f60" stroke="#000000"></path><path d="M96 540L160 540L184 351Z" fill="#004169" stroke="#000000"></path><path d="M283 0L130 4L189 107Z" fill="#004169" stroke="#000000"></path><path d="M0 106L0 121L124 198Z" fill="#023e5c" stroke="#000000"></path><path d="M124 198L0 256L63 336Z" fill="#053c58" stroke="#000000"></path><path d="M470 540L555 540L481 414Z" fill="#10384b" stroke="#000000"></path><path d="M182 544L555 540L470 540Z" fill="#00426d" stroke="#000000"></path><path d="M0 121L0 256L124 198Z" fill="#053c58" stroke="#000000"></path><path d="M63 336L96 540L184 351Z" fill="#004169" stroke="#000000"></path><path d="M719 124L654 91L632 171Z" fill="#053c58" stroke="#000000"></path><path d="M619 69L621 0L531 0Z" fill="#014371" stroke="#000000"></path><path d="M283 0L109 0L130 4Z" fill="#0d3a4f" stroke="#000000"></path><path d="M130 4L109 0L189 107Z" fill="#10384b" stroke="#000000"></path><path d="M0 256L0 394L63 336Z" fill="#00426d" stroke="#000000"></path><path d="M160 540L96 540L182 544Z" fill="#003f60" stroke="#000000"></path><path d="M0 422L96 540L63 336Z" fill="#004064" stroke="#000000"></path><path d="M0 106L124 198L189 107Z" fill="#10384b" stroke="#000000"></path><path d="M639 0L621 0L619 69Z" fill="#10384b" stroke="#000000"></path><path d="M0 394L0 422L63 336Z" fill="#004064" stroke="#000000"></path><path d="M109 0L0 106L189 107Z" fill="#023e5c" stroke="#000000"></path><path d="M662 267L740 246L668 217Z" fill="#023e5c" stroke="#000000"></path><path d="M668 217L719 124L632 171Z" fill="#014371" stroke="#000000"></path><path d="M685 13L639 0L619 69Z" fill="#003f60" stroke="#000000"></path><path d="M731 360L740 246L662 267Z" fill="#00426d" stroke="#000000"></path><path d="M634 430L731 360L662 267Z" fill="#0d3a4f" stroke="#000000"></path><path d="M782 351L731 360L722 521Z" fill="#004064" stroke="#000000"></path><path d="M685 13L619 69L654 91Z" fill="#023e5c" stroke="#000000"></path><path d="M740 246L719 124L668 217Z" fill="#003f60" stroke="#000000"></path><path d="M731 360L758 345L740 246Z" fill="#0d3a4f" stroke="#000000"></path><path d="M740 246L779 96L719 124Z" fill="#054475" stroke="#000000"></path><path d="M782 351L758 345L731 360Z" fill="#054475" stroke="#000000"></path><path d="M719 124L685 13L654 91Z" fill="#054475" stroke="#000000"></path><path d="M109 0L0 0L0 106Z" fill="#003f60" stroke="#000000"></path><path d="M722 521L731 360L634 430Z" fill="#093b53" stroke="#000000"></path><path d="M758 345L782 351L740 246Z" fill="#053c58" stroke="#000000"></path><path d="M0 422L0 540L96 540Z" fill="#00426d" stroke="#000000"></path><path d="M96 540L0 540L182 544Z" fill="#0d3a4f" stroke="#000000"></path><path d="M555 540L722 521L634 430Z" fill="#10384b" stroke="#000000"></path><path d="M779 96L725 0L719 124Z" fill="#10384b" stroke="#000000"></path><path d="M719 124L725 0L685 13Z" fill="#003f60" stroke="#000000"></path><path d="M685 13L725 0L639 0Z" fill="#003f60" stroke="#000000"></path><path d="M883 205L779 96L740 246Z" fill="#053c58" stroke="#000000"></path><path d="M182 544L736 540L555 540Z" fill="#0d3a4f" stroke="#000000"></path><path d="M555 540L736 540L722 521Z" fill="#003f60" stroke="#000000"></path><path d="M722 521L768 540L782 351Z" fill="#00426d" stroke="#000000"></path><path d="M182 544L760 540L736 540Z" fill="#093b53" stroke="#000000"></path><path d="M736 540L760 540L722 521Z" fill="#093b53" stroke="#000000"></path><path d="M182 544L768 540L760 540Z" fill="#023e5c" stroke="#000000"></path><path d="M760 540L768 540L722 521Z" fill="#0d3a4f" stroke="#000000"></path><path d="M768 540L856 381L782 351Z" fill="#053c58" stroke="#000000"></path><path d="M782 351L883 205L740 246Z" fill="#023e5c" stroke="#000000"></path><path d="M856 381L883 205L782 351Z" fill="#004169" stroke="#000000"></path><path d="M779 96L878 0L725 0Z" fill="#053c58" stroke="#000000"></path><path d="M960 344L928 346L960 346Z" fill="#053c58" stroke="#000000"></path><path d="M856 381L928 346L883 205Z" fill="#054475" stroke="#000000"></path><path d="M928 135L779 96L883 205Z" fill="#093b53" stroke="#000000"></path><path d="M928 135L878 0L779 96Z" fill="#10384b" stroke="#000000"></path><path d="M960 265L928 135L883 205Z" fill="#0d3a4f" stroke="#000000"></path><path d="M928 346L960 265L883 205Z" fill="#10384b" stroke="#000000"></path><path d="M960 346L928 346L960 486Z" fill="#093b53" stroke="#000000"></path><path d="M928 346L960 344L960 265Z" fill="#014371" stroke="#000000"></path><path d="M960 486L928 346L856 381Z" fill="#10384b" stroke="#000000"></path><path d="M960 265L960 132L928 135Z" fill="#10384b" stroke="#000000"></path><path d="M928 135L960 0L878 0Z" fill="#093b53" stroke="#000000"></path><path d="M768 540L916 535L856 381Z" fill="#004169" stroke="#000000"></path><path d="M916 535L960 486L856 381Z" fill="#004169" stroke="#000000"></path><path d="M960 132L960 0L928 135Z" fill="#023e5c" stroke="#000000"></path><path d="M768 540L960 540L916 535Z" fill="#093b53" stroke="#000000"></path><path d="M916 535L960 540L960 486Z" fill="#023e5c" stroke="#000000"></path><path d="M182 544L960 540L768 540Z" fill="#00426d" stroke="#000000"></path></g></svg>